<?xml version="1.0" encoding="utf-8"?>
<!-- Generator: Adobe Illustrator 22.1.0, SVG Export Plug-In . SVG Version: 6.00 Build 0)  -->
<svg version="1.1" id="Слой_1" xmlns="http://www.w3.org/2000/svg" xmlns:xlink="http://www.w3.org/1999/xlink" x="0px" y="0px"
	 viewBox="0 0 11.3695993 14.3320599" style="enable-background:new 0 0 11.3695993 14.3320599;" xml:space="preserve">
<style type="text/css">
	.st0{fill:#C1DED5;}
	.st1{fill:#83A145;}
	.st2{fill:#DE9686;}
	.st3{fill:#D0567F;}
</style>
<g>
	<g>
		<g>
			<path class="st0" d="M7.0766997,14.0283594c-0.0121999,0.0030003-0.0249,0.0078001-0.0362,0.0137005
				C7.0517998,14.0381594,7.0639997,14.0332594,7.0766997,14.0283594z"/>
			<path class="st0" d="M6.1571999,0.1016597c0.0288,0.0078,0.0585999,0.0146,0.0868998,0.0224
				c0.0035005-0.0009,0.0113001,0,0.0230002,0.0049c0.0194998-0.0039,0.0503001-0.0166,0.0913-0.0488
				c-0.1099-0.0254-0.2186999-0.0449-0.3276-0.0576C6.0474,0.0781597,6.0990996,0.0869597,6.1571999,0.1016597z"/>
			<path class="st0" d="M6.2690001,0.1299597c-0.0009003-0.001-0.0014-0.001-0.0019002-0.001c-0.0009999,0-0.0019999,0-0.0029001,0
				c0.0058002,0.002,0.0117002,0.0039,0.0174999,0.0049C6.2773051,0.1328597,6.2729998,0.1309597,6.2690001,0.1299597z"/>
			<path class="st0" d="M10.9843998,9.4170599c0,0,0.0542002-0.1787004,0.2343998-0.2772999
				c0.0312004-0.1612005,0.0576-0.3252001,0.0795059-0.4921999c-0.2114058,0.2020998-0.2431059,0.4882994-0.2890005,0.6659994
				c-0.0484056,0.2060003-0.0869055,0.3379002-0.0884056,0.3379002c0,0.0067997-0.0058994,0.0127001-0.0058994,0.0194998
				c0-0.0057993,0.0434999-0.1386995,0.0923052-0.3525c0.0048943-0.0195999,0.0092945-0.0401001,0.0136948-0.0615997
				c-0.0160999,0.0723-0.0316944,0.1289997-0.0316944,0.1289997c-0.0879059,0.2674999,0.0321941-0.4169998,0.0321941-0.4169998
				c0.0430002-0.0284004,0.0425005,0.0467997,0.0283003,0.1415997c0.0332003-0.1640997,0.0855055-0.3535995,0.2245998-0.4921999
				c-0.0033998-0.0029993-0.0073004-0.0068998-0.0107002-0.0107994h0.0004997
				C11.1138,8.4463596,11.2290001,7.9443598,11.2290001,7.9443598c-0.0229006,0.2930002,0.0331993,0.5723,0.0531998,0.6583004
				c0.0044003-0.0020008,0.0093002-0.0030003,0.0151997-0.0049009c0.0029058-0.0019999,0.0053005-0.0049,0.0082998-0.0068998
				c0.0102005-0.0839996,0.0190001-0.1679001,0.0268002-0.2529001c-0.0093002-0.1288996-0.0107002-0.3036995,0.0298052-0.4403996
				c0.0048952-0.1191998,0.0072947-0.2402997,0.0072947-0.3632998c0-2.2002001-0.9715996-4.2832003-2.2718992-5.6992002
				c-0.0953007-0.0703001-0.2832003-0.2188001-0.441-0.4082c0,0,0.0556993,0.0332,0.1352997,0.0936999
				c-0.7129002-0.6932999-1.5039001-1.1875-2.2778001-1.4013c0.0229001,0.0214,0.0468001,0.039,0.0688,0.0459
				c0.0674,0.0195,0.0903053,0.0341-0.1040001,0.0322c0,0-0.0565996-0.0176-0.1171999-0.0362
				c-0.0014,0-0.0028996-0.0009-0.0049-0.0009c-0.0047998-0.001-0.1264-0.0362-0.2342997-0.0616
				c-0.0601001-0.0136-0.1138-0.0234-0.1304002-0.08c-0.1030002-0.0118-0.2056003-0.0176-0.3070998-0.0176
				C3.1073999,0.0010597,0,3.5772598,0,7.5342598c0,0.8027,0.1079,1.5585995,0.3052,2.2538996
				c0.0229,0.0303001,0.123,0.1729002,0.247,0.5195007c0,0-0.1118-0.1201-0.2246-0.4433002
				c0.4844,1.6424999,1.4707052,2.9424,2.7143998,3.7069998c0.1616001-0.0487995,0.6724,0.2196999,0.6724,0.2196999
				c-0.0258999,0.0977001-0.4579999-0.1073999-0.6192-0.1875c0.7837,0.4707003,1.6670001,0.7285004,2.5899003,0.7285004
				c2.5360999,0,4.7753997-1.9531002,5.4662995-4.8768997C11.0985994,9.4541597,11.0434999,9.4424601,10.9843998,9.4170599z
				 M11.1190996,8.7822599c-0.0170002,0.0507994,0.0342054-0.2910004,0.0342054-0.2910004
				C11.1674995,8.5303593,11.1190996,8.7822599,11.1190996,8.7822599z M11.2069998,6.9434595
				c0-0.0038996-0.0228996-0.1025996-0.0629997-0.3037C11.1107998,6.4443598,11.0352001,6.1143599,10.9775,5.6895599
				c0,0.0047998,0.0073996,0.0057998,0.0118055,0.0077996c0.0575943,0.4092002,0.1263943,0.7275,0.1595945,0.9160004
				c0.0395994,0.1952996,0.0595999,0.2939,0.0595999,0.2948999C11.2084999,6.9199595,11.2138996,6.9336596,11.2069998,6.9434595z
				 M11.1777,6.6631598c0,0-0.0848999-0.6680002-0.0942001-1.0985999C11.0834999,5.5645599,11.2484999,6.3779597,11.1777,6.6631598z
				 M9.3613052,3.0078597c-0.1972055,0.1122999-0.4214058-0.1933-0.4214058-0.1933
				C9.0527,2.6524596,9.3613052,3.0078597,9.3613052,3.0078597z M9.1239996,2.3955598
				C8.8466997,2.6963596,8.2997999,2.1670597,8.2997999,2.1670597C8.4355993,1.8145597,9.1239996,2.3955598,9.1239996,2.3955598z
				 M7.8676996,1.9102597c0.0078001,0.0058,0.2221003,0.1191001,0.4595003,0.3436999
				c0.2123995,0.1924,0.4911995,0.5127001,0.6420002,0.9268c0.3837996-0.0214999,0.7553997,0.6162,0.7553997,0.6162
				C9.4027996,3.6279597,9.0834999,3.3193598,8.9819002,3.2168598c0,0,0,0-0.0005007,0
				c0.0054007,0.0146999,0.0103006,0.0282998,0.0146999,0.043C8.9902,3.2578597,8.9839001,3.2568598,8.9775,3.2559597
				c-0.0174999,0.1338-0.0844002,0.4198999-0.3368998,0.5967c0,0-0.1601-0.6835999,0.2851992-0.6738999
				c-0.1547995-0.4023001-0.4179993-0.7177-0.625-0.9072001c-0.2372999-0.2119-0.4467998-0.3300999-0.4467998-0.3329999
				C7.8613052,1.9317597,7.8599,1.9180597,7.8676996,1.9102597z M8.1767998,3.0488598c0,0-0.5346999-0.7002001-0.0733004-0.8574002
				C8.1034994,2.1914597,8.5888996,2.6875596,8.1767998,3.0488598z M6.4688001,3.7139597c0,0,0.2714,1.2617002-0.4258003,1.0888
				c-0.1410999,0.4981003,0.0156002,0.9698,0.1621003,1.2852001C6.2637,6.2119598,6.3276,6.3184595,6.3853049,6.4053597
				c-0.1079998-0.336-0.095705-0.8027,0.395-1.3134999c0,0,0.7260947,0.9198999-0.0684052,1.8495998
				c0,0-0.0936999-0.0879002-0.1884999-0.2392001C6.5225,6.7031598,6.5204997,6.7051597,6.5194998,6.7061596
				C6.5088,6.6992598,6.3158998,6.4707599,6.1381998,6.1192598C5.9770999,5.7959599,5.8237,5.3008599,5.9730997,4.7822599
				C5.9730997,4.7822599,5.4579997,4.2266598,6.4688001,3.7139597z M6.7163053,13.9111595
				c0,0-0.3017054,0.1612005-0.6938052,0.1377001C6.0225,14.0488596,6.3188996,13.9258595,6.7163053,13.9111595z
				 M6.3013053,0.1611597c0,0-0.3716054-0.0468-0.5049052-0.0859C5.7964001,0.0752597,6.1557999,0.0977597,6.3013053,0.1611597z
				 M4.8896999,0.2705597c0.3325-0.0683,0.3530002,0.0684,0.3530002,0.0684s0.3197999-0.0303,0.4608998,0.0195
				c0.1465001,0.0557-0.0532002,0.1309-1.0576,0.252C4.6459999,0.6104597,4.4828997,0.3545597,4.8896999,0.2705597z
				 M3.9154999,0.7227597c0.3574998-0.0547,0.2022002,0.1103,0.2022002,0.1103
				C3.7744,0.9024597,3.9154999,0.7227597,3.9154999,0.7227597z M3.2958999,1.0889597c0.7466002-0.2412,0.5581,0.1787,0.5581,0.1787
				C3.1278999,1.4981598,3.2958999,1.0889597,3.2958999,1.0889597z M2.7588,9.4356594
				c0.4843998,0.2421007,0.3476,0.6035004,0.3476,0.6035004C2.6831,9.9453602,2.7588,9.4356594,2.7588,9.4356594z
				 M2.9696999,10.9082594C2.2328999,10.8438597,2.1348,9.8818598,2.1348,9.8818598
				C3.0434999,10.2149601,2.9696999,10.9082594,2.9696999,10.9082594z M0.6387,10.4317598c0,0-0.0357-0.0693998-0.0801-0.1758003
				c-0.001,0.0019007-0.002,0.0039005-0.002,0.0058002C0.5518,10.2559595,0.4741,10.0908594,0.3931,9.86236
				c-0.0727949-0.2109003-0.166-0.5223999-0.19-0.8164005c0,0-0.1547949-0.4237995,0.0103-0.7051001
				c0,0,0.1631,0.96,0.0049051,0.7285004C0.2422,9.3535595,0.3291,9.6553593,0.4019,9.8594599
				c0.0424051,0.1288996,0.0888,0.2362995,0.1206,0.3057003c-0.086-0.2266006-0.1778-0.5547009-0.1123-0.7989006
				C0.4102,9.3662596,0.7065,10.0752602,0.6387,10.4317598z M1.6654999,3.6885598c0,0-0.1332999,0.8232-0.8525,1.3202999
				C0.813,5.0088596,1.0508,3.9238598,1.6654999,3.6885598z M1.5137,6.1953597
				C1.4741,6.1719599,1.4413999,6.1397595,1.4125999,6.1035595C1.3657,6.3867598,1.23,6.7090597,0.9121,7.0108595
				c0,0-0.1196-0.4277997-0.0049-0.9199996c-0.0508,0.0225-0.0835,0.0195999-0.0835,0.0195999
				c0.2115-1.1933999,0.626-1.1220999,0.626-1.1220999C1.8573999,5.2891598,1.5137,6.1953597,1.5137,6.1953597z M1.7939,3.7539597
				c-0.0165949,0.2568998-0.0893,0.6826-0.3354001,1.2041001c-0.0093-0.0088-0.0229-0.0097003-0.0326999-0.0184999
				c0.2383-0.5020003,0.3076-0.9141002,0.3247-1.1631002c0.0156-0.2569001-0.021-0.3954999-0.021-0.3964999
				c0.0107-0.0156002,0.0259-0.0273001,0.041-0.0371001C1.7656,3.3467598,1.8101,3.4893596,1.7939,3.7539597z M1.8647,3.6445596
				c0.6293999-0.5389998,0.8212999,0.2549,0.8212999,0.2549C1.8291,4.2735596,1.8647,3.6445596,1.8647,3.6445596z M2.1162,12.54986
				c0.0483999,0.0176001,0.1045001,0.0458994,0.1615999,0.0790997C2.091305,12.4424601,1.918,12.2051601,1.8906,11.9531593
				c0,0,0.3633001,0.2452002,0.6241,0.5645008c0.017-0.0137005,0.0341001-0.0166006,0.0341001-0.0166006
				c0.6782999,0.7578001,0.3794,0.6855001,0.3794,0.6855001C2.5049,13.0508595,2.1162,12.54986,2.1162,12.54986z
				 M4.0985999,13.92976c-0.0072947-0.0029001-0.1928-0.0635004-0.4238-0.1787004
				c-0.2148001-0.1112995-0.5184948-0.3027-0.73-0.5487995c0.0127001,0.0008993,0.0239999,0.0096998,0.0362,0.0096998
				c0.2031,0.2411995,0.5004001,0.4267998,0.7109001,0.5332003c0.2250998,0.1132994,0.4135997,0.1738997,0.4115999,0.1738997
				C4.1034999,13.9229593,4.0985999,13.9258595,4.0985999,13.92976z M3.5165999,13.1465597c0,0,0.8163998,0.5966997,0.3374,0.6475
				C3.8539999,13.7940598,3.1812,13.4141598,3.5165999,13.1465597z M3.2368,11.0947599c0,0,0.1376998-0.5986004,1.0855052-0.3486004
				C4.3223052,10.7461596,3.9287,11.4600601,3.2368,11.0947599z M3.6587,9.9375601
				c-0.3770001,0.3085995-0.5020001,0.6855993-0.5337,0.9453001c-0.0395,0.2812996,0.02,0.4989996,0.02,0.5019999
				c-0.0185001-0.0030003-0.0371001-0.0030003-0.0556002-0.0059004c-0.0063999-0.0078001-0.0625-0.2294998-0.023-0.5185003
				C3.0897999,10.5928593,3.2221999,10.2061596,3.6064,9.8887596C3.0170999,9.4180593,3.3936,8.6543598,3.3936,8.6543598
				C3.6625998,9.18466,3.6518998,9.6992598,3.6401,9.8594599c0.0014999,0,0.003,0,0.0038998,0
				c0.0132-0.0108004,0.0259001-0.0205002,0.0396001-0.0313005c0.0033998,0.0088005,0.0088,0.0157003,0.0146,0.0225
				c0.2041051-0.0292997,0.6684997-0.0644999,1.1738999,0.1191006C4.8720999,9.9697599,4.1890001,10.4102592,3.6587,9.9375601z
				 M3.7357998,9.7158594c0,0-0.3339-1.3036995,0.2637-1.4951c0.5288053-0.1659994,0.5513,0.6514006,0.5513,0.6514006
				s0.4843998-0.0684004,0.6938,0.1864996C5.4457998,9.3154593,5.1156998,9.9658594,3.7357998,9.7158594z M4.0717998,1.2891598
				c0,0,0.2231002-0.3936,0.9823999-0.3877001C5.0541997,0.9014597,4.6791997,1.2959597,4.0717998,1.2891598z M4.5713053,0.6895597
				c-0.3379054,0.1709-0.4922051,0.373-0.5659056,0.5146c-0.0864997,0.1758-0.0805998,0.3008-0.0805998,0.3018
				c-0.0184948,0.0049-0.0360999,0.0127-0.0546999,0.0166c0-0.0049001-0.0019002-0.1289001,0.0844998-0.3125
				c0.0742002-0.1465,0.2333999-0.3545001,0.5801001-0.5283c-0.4003949-0.0528-0.0689001-0.2696-0.0689001-0.2696
				c0.1680002,0.0615,0.1201,0.2061,0.0981998,0.2559c0.0005002-0.001,0.0009003-0.001,0.0019002-0.001
				c0.0107999-0.0059,0.0215001-0.0107,0.0327001-0.0156c0.0043998,0.001,0.0082998,0.0029,0.0127053,0.0039001
				c0.1581945-0.0381,0.5068946-0.1074,0.8661947-0.0693001C5.4775,0.5860597,4.9633999,0.7637597,4.5713053,0.6895597z
				 M5.5288,6.2061596c0,0,0.6728997-0.0204997,0.8775053,0.6406002C6.4063053,6.8467598,5.7421999,6.8770599,5.5288,6.2061596z
				 M7.2402,14.0625601c0,0-0.5742002,0.1288996-0.2026-0.0185003c-0.1279001-0.0137005-0.3852949,0.0047998-0.5864,0.0205002
				c-0.0210004,0.0018997-0.0410004,0.0029001-0.0611,0.0047998c0.1303997,0.0108004,0.2286,0.0430002,0.2114997,0.1162996
				c0,0-0.6987996,0.0879002-0.7621999-0.0937996c0,0,0.2270002-0.0292997,0.434-0.0283003
				c0.0585999-0.0038996,0.125-0.0087996,0.1949053-0.0136995c0.2093949-0.0156002,0.4774947-0.04,0.6083946-0.0215006
				C7.0766997,14.0283594,7.5073051,13.9121599,7.2402,14.0625601z M7.6088996,12.7119598
				c0.0176001-0.2792997,0.5713-0.3525,0.5713-0.3525s0.0796003-0.2725,0.2982998-0.4190006
				c0.2163-0.1444998,0.5274-0.0047998,0.0098057,0.7413006C8.4883051,12.6817598,7.5864,13.0039597,7.6088996,12.7119598z
				 M8.1723995,13.36726c0.4272003-0.4247999,0.7617006-0.5713005,0.7617006-0.5713005
				C8.7143993,13.1211596,8.1723995,13.36726,8.1723995,13.36726z M8.0737,13.1826601
				c0.2680998-0.2539005,0.4375-0.2588005,0.4375-0.2588005C8.3485994,13.1289597,8.0737,13.1826601,8.0737,13.1826601z
				 M9.1879997,12.6201601c-0.0049,0.0029993-0.1196003,0.0908995-0.2533998,0.1464996
				c-0.1236,0.0508003-0.2983999,0.0712996-0.3794003-0.0508003c-0.0030003,0.0019999-0.0048943,0.0039005-0.0072994,0.0059004
				c-0.4170008,0.3555002-0.8008003,0.2627001-0.8008003,0.2627001c0.4120998-0.1845999,0.7118998-0.2598,0.8002996-0.2792997
				c0.0005007-0.0010004,0.0005007-0.0010004,0.0005007-0.0020008c-0.0030003-0.0047998-0.0059004-0.0087996-0.0083008-0.0135994
				c0.0068007-0.0039005,0.0125999-0.0088005,0.0185003-0.0137005c0.0381002-0.0966997,0.1410999-0.3231993,0.3687-0.6308994
				c0,0,0.0737,0.3017998-0.3316002,0.6386995c0.0752001,0.1211004,0.2455997,0.1006002,0.3656998,0.0517998
				c0.1299-0.0517998,0.2456007-0.1396999,0.2442007-0.1396999C9.1977997,12.6026602,9.1879997,12.6104593,9.1879997,12.6201601z
				 M9.0928001,12.63486c0,0-0.2613001,0.0928001,0.1058998-0.4336004C9.1987,12.2012596,9.4482002,12.2412596,9.0928001,12.63486z
				 M9.8423052,8.7266598C9.8100996,9.0156593,9.7163048,9.4356594,9.4496994,9.8145599
				c0,0,0.0371008,0.5546999-0.7753944,0.8133993c0,0,0.4418945-1.1601,0.7485952-0.8456993
				C9.6815996,9.41996,9.7694998,9.0127602,9.8017998,8.7315598c0.0145998-0.1348,0.0160999-0.2549,0.0136003-0.3477001
				C9.7670994,8.6953602,9.6069002,9.0986595,9.134305,9.3760595c0,0-0.071805-0.9551001,0.6825943-1.4512
				c0,0,0.0195007,0.0977006,0.0166006,0.2471004C9.8364,8.1709595,9.8393993,8.1690598,9.8417997,8.1680593
				C9.8417997,8.1777601,9.875,8.4092598,9.8423052,8.7266598z M9.4292002,4.2998595c0,0-0.0596008,0.3223-0.2656002,0.3018003
				c-0.2192945-0.0215001-0.5502949-0.5644999-0.1021004-1.2442c0,0,0.7862005,0.5800998,0.8018055,0.9960997
				C9.8716002,4.7295599,9.4292002,4.2998595,9.4292002,4.2998595z M10.1187,8.8213596c0,0-0.2662001-0.1611004-0.1845999-0.7227001
				C9.9341002,8.0986595,10.2245998,8.2803593,10.1187,8.8213596z M10.5536995,4.1309595c0,0,0.1582003,0.289,0.2676058,0.6650004
				c0.0038948-0.0303001,0.0121946-0.0322003,0.0121946-0.0322003c0.2665997,0.8789001,0.1392002,0.9022999,0.1392002,0.9022999
				c-0.1690006-0.1473999-0.3360004-0.8592997-0.3360004-0.8592997c0.0200005,0.0106997,0.0404997,0.0302,0.060605,0.0555997
				C10.6293993,4.6494598,10.5683994,4.3936596,10.5536995,4.1309595z M11.1483994,6.7354598
				c-0.0345993,0.5488-0.2572994,0.0174999-0.2572994,0.0174999C11.0542002,6.2471595,11.1483994,6.7354598,11.1483994,6.7354598z"
				/>
			<path class="st1" d="M0.3052,9.7881594c0.0073,0.0254002,0.0151051,0.0508003,0.0224,0.0762005
				c0.1128,0.3232002,0.2246,0.4433002,0.2246,0.4433002C0.4282,9.9610596,0.3281,9.8184595,0.3052,9.7881594z"/>
			<path class="st1" d="M0.5225,10.1651602C0.5459,10.2168598,0.562,10.2461596,0.562,10.24716
				c0,0.0038996-0.0019,0.0067997-0.0034,0.0087996c0.0444,0.1064005,0.0801,0.1758003,0.0801,0.1758003
				c0.0678-0.3564997-0.2285-1.0655003-0.2285-1.0655003C0.3447,9.6104593,0.4365,9.9385595,0.5225,10.1651602z"/>
			<path class="st1" d="M0.5225,10.1651602c-0.0318-0.0694008-0.0781949-0.1768007-0.1206-0.3057003
				C0.3291,9.6553593,0.2422,9.3535595,0.2183051,9.0693598C0.2134,9.0625601,0.2085,9.05476,0.2031,9.0459595
				c0.024,0.2940006,0.1172051,0.6055002,0.19,0.8164005c0.081,0.2284994,0.1587,0.3935995,0.1635,0.3993998
				c0-0.0018997,0.001-0.0038996,0.002-0.0058002c0.0015-0.0019999,0.0034-0.0049,0.0034-0.0087996
				C0.562,10.2461596,0.5459,10.2168598,0.5225,10.1651602z"/>
			<path class="st1" d="M0.2134,8.3408594C0.0483051,8.62216,0.2031,9.0459595,0.2031,9.0459595
				C0.2085,9.05476,0.2134,9.0625601,0.2183051,9.0693598C0.3765,9.3008595,0.2134,8.3408594,0.2134,8.3408594z"/>
			<path class="st2" d="M0.9072,6.0908599C0.7925,6.5830598,0.9121,7.0108595,0.9121,7.0108595
				c0.3179001-0.3017998,0.4536-0.6240997,0.5005-0.9073c-0.1547999-0.1971998-0.1566999-0.54-0.1566999-0.54
				C1.1377,5.9277596,0.9951,6.0498595,0.9072,6.0908599z"/>
			<path class="st1" d="M1.7704999,3.3428597c-0.0151,0.0098-0.0303,0.0214999-0.041,0.0371001
				c0,0.0009999,0.0366,0.1395998,0.021,0.3964999c-0.0171,0.2490001-0.0864,0.6610999-0.3247,1.1631002
				c0.0098,0.0087996,0.0233999,0.0096998,0.0326999,0.0184999C1.7046,4.4365597,1.7773051,4.0108595,1.7939,3.7539597
				C1.8101,3.4893596,1.7656,3.3467598,1.7704999,3.3428597z"/>
			<path class="st1" d="M1.4497,4.9883599c0,0-0.4145-0.0713-0.626,1.1220999c0,0,0.0327,0.0029001,0.0835-0.0195999
				c0.0879-0.0410004,0.2305-0.1631002,0.3487-0.5273004c0,0,0.0019,0.3428001,0.1566999,0.54
				c0.0288,0.0362,0.0615001,0.0684004,0.1011001,0.0918002C1.5137,6.1953597,1.8573999,5.2891598,1.4497,4.9883599z"/>
			<path class="st1" d="M1.6654999,3.6885598C1.0508,3.9238598,0.813,5.0088596,0.813,5.0088596
				C1.5322,4.5117598,1.6654999,3.6885598,1.6654999,3.6885598z"/>
			<path class="st1" d="M2.6859999,3.8994596c0,0-0.1919-0.7938998-0.8212999-0.2549
				C1.8647,3.6445596,1.8291,4.2735596,2.6859999,3.8994596z"/>
			<path class="st2" d="M2.5146999,12.5176601c-0.2607999-0.3193007-0.6241-0.5645008-0.6241-0.5645008
				c0.0274,0.2520008,0.2007051,0.4893007,0.3871999,0.6758003c0.1763,0.1026001,0.3619001,0.25,0.3619001,0.25
				C2.4247999,12.63976,2.4707,12.5488596,2.5146999,12.5176601z"/>
			<path class="st1" d="M2.9809999,13.2119598c-0.0122001,0-0.0235-0.0088005-0.0362-0.0096998
				c0.2115052,0.2460995,0.5151999,0.4375,0.73,0.5487995c0.2309999,0.1152,0.4165053,0.1758003,0.4238,0.1787004
				c0-0.0039005,0.0049-0.0068007,0.0049-0.0107002c0.0019999,0-0.1865001-0.0606003-0.4115999-0.1738997
				C3.4814,13.6387596,3.1840999,13.4531593,2.9809999,13.2119598z"/>
			<path class="st1" d="M2.5488,12.5010595c0,0-0.0171001,0.0029001-0.0341001,0.0166006
				c-0.0439999,0.0311995-0.0899,0.1220999,0.125,0.3612995c0,0-0.1856-0.1473999-0.3619001-0.25
				C2.2207,12.5957594,2.1645999,12.5674601,2.1162,12.54986c0,0,0.3887,0.5009995,0.812,0.6366997
				C2.9282,13.1865597,3.2270999,13.2588596,2.5488,12.5010595z"/>
			<path class="st1" d="M3.5165999,13.1465597c-0.3353999,0.2676001,0.3374,0.6475,0.3374,0.6475
				C4.3329997,13.7432594,3.5165999,13.1465597,3.5165999,13.1465597z"/>
			<path class="st1" d="M3.7143998,13.7910595c0,0-0.5107999-0.2684994-0.6724-0.2196999
				c0.0176001,0.0116997,0.0352001,0.0225,0.0532,0.0321999C3.2563999,13.6836596,3.6884999,13.8887596,3.7143998,13.7910595z"/>
			<path class="st1" d="M3.614305,9.8945599c-0.003-0.0009003-0.0054052-0.0039005-0.007905-0.0058002
				c-0.3842001,0.3174-0.5166001,0.7040997-0.5400002,0.9716997c-0.0395,0.2890005,0.0166001,0.5107002,0.023,0.5185003
				C3.1078999,11.3818598,3.1264999,11.3818598,3.145,11.38486c0-0.0030003-0.0595-0.2207003-0.02-0.5019999
				c0.0316999-0.2597008,0.1566999-0.6367006,0.5337-0.9453001C3.6436,9.9238596,3.6288998,9.9102592,3.614305,9.8945599z"/>
			<path class="st1" d="M3.6835999,9.8281593c-0.0137,0.0108004-0.0264001,0.0205002-0.0396001,0.0313005
				C3.6592,9.8565598,3.6771998,9.8535595,3.6982,9.8506594C3.6924,9.8438597,3.6869998,9.8369598,3.6835999,9.8281593z"/>
			<path class="st1" d="M3.2368,11.0947599c0.6919,0.3653002,1.0855052-0.3486004,1.0855052-0.3486004
				C3.3744998,10.4961596,3.2368,11.0947599,3.2368,11.0947599z"/>
			<path class="st1" d="M2.9696999,10.9082594c0,0,0.0738001-0.6932993-0.8348999-1.0263996
				C2.1348,9.8818598,2.2328999,10.8438597,2.9696999,10.9082594z"/>
			<path class="st1" d="M3.1064,10.0391598c0,0,0.1367998-0.3613997-0.3476-0.6035004
				C2.7588,9.4356594,2.6831,9.9453602,3.1064,10.0391598z"/>
			<path class="st3" d="M4.5507998,8.87216c0,0-0.0224948-0.8174-0.5513-0.6514006c-0.5976,0.1914005-0.2637,1.4951-0.2637,1.4951
				c1.3799,0.25,1.71-0.4004002,1.5088-0.6571999C5.0351996,8.8037596,4.5507998,8.87216,4.5507998,8.87216z"/>
			<path class="st1" d="M3.5893998,9.8701601c0,0,0.0180001-0.0039005,0.0507002-0.0107002
				C3.6518998,9.6992598,3.6625998,9.18466,3.3936,8.6543598c0,0-0.3765001,0.7636995,0.2128,1.2343998
				c0.0024998,0.0018997,0.004905,0.0049,0.007905,0.0058002C3.6059999,9.8867598,3.5976999,9.8789597,3.5893998,9.8701601z"/>
			<path class="st1" d="M3.6982,9.8506594c-0.0210001,0.0029001-0.039,0.0059004-0.0542002,0.0088005
				c-0.0008998,0-0.0023999,0-0.0038998,0C3.6073999,9.8662596,3.5893998,9.8701601,3.5893998,9.8701601
				C3.5976999,9.8789597,3.6059999,9.8867598,3.614305,9.8945599C3.6288998,9.9102592,3.6436,9.9238596,3.6587,9.9375601
				c0.5303001,0.4726992,1.2133999,0.0321999,1.2133999,0.0321999C4.3666997,9.7861595,3.9023051,9.8213596,3.6982,9.8506594z"/>
			<path class="st1" d="M6.4063053,6.8467598C6.2016997,6.1856599,5.5288,6.2061596,5.5288,6.2061596
				C5.7421999,6.8770599,6.4063053,6.8467598,6.4063053,6.8467598z"/>
			<path class="st1" d="M6.5233998,6.7022595c0.0948,0.1513,0.1884999,0.2392001,0.1884999,0.2392001
				c0.7944999-0.9296999,0.0684052-1.8495998,0.0684052-1.8495998c-0.490705,0.5107999-0.5029998,0.9775-0.395,1.3134999
				C6.4888,6.5625596,6.5731997,6.6543598,6.5731997,6.6563597C6.5565996,6.6709599,6.5395999,6.6865597,6.5233998,6.7022595z"/>
			<path class="st1" d="M6.1381998,6.1192598c0.1777,0.3515,0.3706002,0.5799999,0.3813,0.5868998
				C6.5204997,6.7051597,6.5225,6.7031598,6.5233998,6.7022595c0.0162001-0.0156999,0.0331998-0.0312996,0.0497999-0.0458999
				c0-0.0019999-0.0843997-0.0938001-0.1878948-0.2509999C6.3276,6.3184595,6.2637,6.2119598,6.2051001,6.0879598
				C6.0585999,5.7725596,5.9018998,5.3008599,6.0429997,4.8027596c-0.0219998-0.0047998-0.0453997-0.0117002-0.0699-0.0204997
				C5.8237,5.3008599,5.9770999,5.7959599,6.1381998,6.1192598z"/>
			<path class="st1" d="M5.9730997,4.7822599c0.0245004,0.0087996,0.0479002,0.0156999,0.0699,0.0204997
				c0.6972003,0.1729002,0.4258003-1.0888,0.4258003-1.0888C5.4579997,4.2266598,5.9730997,4.7822599,5.9730997,4.7822599z"/>
			<path class="st1" d="M6.7163053,13.9111595C6.3188996,13.9258595,6.0225,14.0488596,6.0225,14.0488596
				C6.4145999,14.07236,6.7163053,13.9111595,6.7163053,13.9111595z"/>
			<path class="st1" d="M6.0351996,14.0820599c0.0058002-0.0009003,0.1015-0.0078001,0.2382002-0.0185003
				c-0.2069998-0.0009995-0.434,0.0283003-0.434,0.0283003c0.0634003,0.1816998,0.7621999,0.0937996,0.7621999,0.0937996
				C6.6187,14.11236,6.5204997,14.0801601,6.3901,14.0693598c-0.1972003,0.0146999-0.3545003,0.0263996-0.3564,0.0263996
				C6.0337,14.0908594,6.0351996,14.0860596,6.0351996,14.0820599z"/>
			<path class="st1" d="M7.0766997,14.0283594C6.9457998,14.00986,6.6777,14.0342598,6.4683051,14.04986
				c-0.0699053,0.0049-0.1363053,0.0098-0.1949053,0.0136995c-0.1367002,0.0107002-0.2323999,0.0176001-0.2382002,0.0185003
				c0,0.0039997-0.0014997,0.0087996-0.0014997,0.0136995c0.0018997,0,0.1591997-0.0116997,0.3564-0.0263996
				c0.0200996-0.0018997,0.0400996-0.0029001,0.0611-0.0047998c0.2011051-0.0157003,0.4584999-0.0342007,0.5864-0.0205002
				c0.0009999,0,0.0019999-0.0010004,0.0028996-0.0019999C7.0517998,14.0361595,7.0644999,14.0313597,7.0766997,14.0283594z"/>
			<path class="st1" d="M7.0766997,14.0283594c-0.0127001,0.0049-0.0249,0.0098-0.0362,0.0137005
				C7.0395999,14.0430593,7.0386,14.0440598,7.0376,14.0440598c-0.3716002,0.1473999,0.2026,0.0185003,0.2026,0.0185003
				C7.5073051,13.9121599,7.0766997,14.0283594,7.0766997,14.0283594z"/>
			<path class="st1" d="M4.5985999,0.6514597c-0.0112,0.0049-0.0219002,0.0097-0.0327001,0.0156
				c0.0121999-0.0029,0.0279002-0.0068,0.0454054-0.0117C4.6068997,0.6543597,4.6029997,0.6524597,4.5985999,0.6514597z"/>
			<path class="st1" d="M4.5346999,0.6817597c-0.3467002,0.1738-0.5058999,0.3818001-0.5801001,0.5283
				C3.8681998,1.3936597,3.8701,1.5176597,3.8701,1.5225598c0.0186-0.0039001,0.0362051-0.0117,0.0546999-0.0166
				c0-0.001-0.0058999-0.126,0.0805998-0.3018c0.0737004-0.1416,0.2280002-0.3437,0.5659056-0.5146
				c-0.0107055-0.002-0.0220003-0.0039-0.0332055-0.0069C4.5370998,0.6826597,4.5355997,0.6826597,4.5346999,0.6817597z"/>
			<path class="st1" d="M5.0541997,0.9014597c-0.7592998-0.0059-0.9823999,0.3877001-0.9823999,0.3877001
				C4.6791997,1.2959597,5.0541997,0.9014597,5.0541997,0.9014597z"/>
			<path class="st1" d="M3.8539999,1.2676597c0,0,0.1885002-0.4198999-0.5581-0.1787
				C3.2958999,1.0889597,3.1278999,1.4981598,3.8539999,1.2676597z"/>
			<path class="st1" d="M4.1177001,0.8330597c0,0,0.1552997-0.165-0.2022002-0.1103
				C3.9154999,0.7227597,3.7744,0.9024597,4.1177001,0.8330597z"/>
			<path class="st3" d="M5.7035999,0.3584597c-0.1410999-0.0498-0.4608998-0.0195-0.4608998-0.0195
				s-0.0205002-0.1367-0.3530002-0.0684c-0.4068003,0.084-0.2437,0.3399-0.2437,0.3399
				C5.6503997,0.4893597,5.8501,0.4141597,5.7035999,0.3584597z"/>
			<path class="st1" d="M4.5229998,0.6787597c0,0,0.0151-0.0039,0.0409999-0.0107
				c0.0219002-0.0498,0.0698004-0.1944-0.0981998-0.2559c0,0-0.3314948,0.2168,0.0689001,0.2696
				c0.0008998,0.0009,0.0023999,0.0009,0.0033998,0.0009C4.5331998,0.6817597,4.5278001,0.6807597,4.5229998,0.6787597z"/>
			<path class="st1" d="M4.6113052,0.6553597c-0.0175052,0.0049-0.0332055,0.0088-0.0454054,0.0117
				c-0.0009999,0-0.0014,0-0.0019002,0.001c-0.0258999,0.0068-0.0409999,0.0107-0.0409999,0.0107
				c0.0048003,0.002,0.0102,0.003,0.0151,0.0039001c0.0112052,0.003,0.0225,0.0049,0.0332055,0.0069
				c0.3920946,0.0742,0.9061947-0.1035,0.9061947-0.1035C5.1181998,0.5479597,4.7694998,0.6172597,4.6113052,0.6553597z"/>
			<path class="st1" d="M8.9960995,3.2598598c-0.0043993-0.0147002-0.0092993-0.0283-0.0146999-0.043
				C8.9809999,3.2276597,8.9794998,3.2402596,8.9775,3.2559597C8.9839001,3.2568598,8.9902,3.2578597,8.9960995,3.2598598z"/>
			<path class="st1" d="M8.9257994,3.1787598c0.0122004,0,0.0259008,0.0009999,0.039506,0.0019999
				c0.0009995,0,0.0024948,0,0.0038948,0c-0.1508007-0.4140999-0.4296007-0.7344-0.6420002-0.9268
				C8.0897999,2.0293598,7.8754997,1.9160597,7.8676996,1.9102597c-0.0077996,0.0078-0.0063944,0.0215-0.0137,0.0283
				c0,0.0029,0.2094998,0.1210999,0.4467998,0.3329999C8.5078001,2.4610598,8.7709999,2.7764597,8.9257994,3.1787598z"/>
			<path class="st1" d="M8.1767998,3.0488598c0.4120998-0.3613002-0.0733004-0.8574002-0.0733004-0.8574002
				C7.6420999,2.3486598,8.1767998,3.0488598,8.1767998,3.0488598z"/>
			<path class="st1" d="M9.1239996,2.3955598c0,0-0.6884003-0.5810001-0.8241997-0.2285001
				C8.2997999,2.1670597,8.8466997,2.6963596,9.1239996,2.3955598z"/>
			<path class="st1" d="M8.9398994,2.8145597c0,0,0.2242002,0.3055999,0.4214058,0.1933
				C9.3613052,3.0078597,9.0527,2.6524596,8.9398994,2.8145597z"/>
			<path class="st3" d="M9.0614996,3.3574598C8.6133051,4.0371599,8.9443054,4.5801597,9.1636,4.6016598
				c0.2059994,0.0204997,0.2656002-0.3018003,0.2656002-0.3018003s0.4424,0.4297004,0.4341049,0.0537
				C9.8477001,3.9375596,9.0614996,3.3574598,9.0614996,3.3574598z"/>
			<path class="st1" d="M8.9839001,3.1826596c0,0-0.0005007,0.0127001-0.0019999,0.0342002
				c0.1015997,0.1025,0.4208994,0.4110999,0.7426996,0.5800998c0,0-0.3716002-0.6376998-0.7553997-0.6162
				c-0.0014,0-0.0028954,0-0.0038948,0C8.9712,3.1817598,8.9775,3.1817598,8.9839001,3.1826596z"/>
			<path class="st1" d="M8.9653053,3.1807597c-0.0136051-0.0009999-0.0273056-0.0019999-0.039506-0.0019999
				C8.4805002,3.1690598,8.6406002,3.8526597,8.6406002,3.8526597C8.8930998,3.6758597,8.96,3.3897598,8.9775,3.2559597
				c0.0019999-0.0157001,0.0035-0.0283,0.0038996-0.0390999c0.0005007,0,0.0005007,0,0.0005007,0
				c0.0014992-0.0215001,0.0019999-0.0342002,0.0019999-0.0342002C8.9775,3.1817598,8.9712,3.1817598,8.9653053,3.1807597z"/>
			<path class="st1" d="M9.0977001,1.8350598c-0.0996008-0.1084-0.2021999-0.2139001-0.3057003-0.3145001
				C8.7123995,1.4600598,8.6567001,1.4268597,8.6567001,1.4268597C8.8144999,1.6162597,9.0023994,1.7647597,9.0977001,1.8350598z"/>
			<path class="st1" d="M8.5395994,12.6895599c0.0024004,0.0047998,0.0053005,0.0087996,0.0083008,0.0135994
				c0.0028992-0.0067997,0.0063-0.0165997,0.0101995-0.0272999C8.5521994,12.6807594,8.5464001,12.6856594,8.5395994,12.6895599z"/>
			<path class="st1" d="M8.5951996,12.6836596c-0.0131998,0.0107002-0.0262995,0.0215006-0.04,0.0321999
				c0.0810003,0.1220999,0.2558002,0.1016006,0.3794003,0.0508003c0.1337996-0.0556002,0.2484999-0.1435003,0.2533998-0.1464996
				c0-0.0097008,0.0098-0.0174999,0.0171003-0.0244007c0.0014,0-0.1143007,0.0879002-0.2442007,0.1396999
				C8.8407993,12.7842598,8.6703997,12.80476,8.5951996,12.6836596z"/>
			<path class="st1" d="M9.1987,12.2012596C8.8315001,12.7276602,9.0928001,12.63486,9.0928001,12.63486
				C9.4482002,12.2412596,9.1987,12.2012596,9.1987,12.2012596z"/>
			<path class="st1" d="M8.9341002,12.7959595c0,0-0.3345003,0.1465006-0.7617006,0.5713005
				C8.1723995,13.36726,8.7143993,13.1211596,8.9341002,12.7959595z"/>
			<path class="st1" d="M8.5112,12.9238596c0,0-0.1694002,0.0049-0.4375,0.2588005
				C8.0737,13.1826601,8.3485994,13.1289597,8.5112,12.9238596z"/>
			<path class="st3" d="M8.4883051,12.6817598c0.5175943-0.7461004,0.2064943-0.8858004-0.0098057-0.7413006
				C8.2598,12.0869598,8.1801996,12.3594599,8.1801996,12.3594599s-0.5537,0.0732002-0.5713,0.3525
				C7.5864,13.0039597,8.4883051,12.6817598,8.4883051,12.6817598z"/>
			<path class="st1" d="M8.5473995,12.7051601c-0.0883999,0.0194998-0.3881998,0.0946999-0.8002996,0.2792997
				c0,0,0.3837996,0.0928001,0.8008003-0.2627001c-0.0030003,0.0018997-0.0054007,0.0038996-0.0083008,0.0059004
				C8.5395994,12.7276602,8.5419998,12.7197599,8.5473995,12.7051601z"/>
			<path class="st1" d="M8.9267998,12.04496c-0.2276001,0.3077002-0.3305998,0.5341997-0.3687,0.6308994
				c-0.0038996,0.0107002-0.0073004,0.0205002-0.0101995,0.0272999c0,0.0010004,0,0.0010004-0.0005007,0.0020008
				c-0.0053997,0.0145998-0.0078001,0.0225-0.0078001,0.0225c0.0029001-0.0020008,0.0053005-0.0040007,0.0083008-0.0059004
				c0.0024052-0.0019999,0.0042992-0.0039005,0.0072994-0.0059004c0.0137005-0.0106993,0.0268002-0.0214996,0.04-0.0321999
				C9.0004997,12.3467598,8.9267998,12.04496,8.9267998,12.04496z"/>
			<path class="st1" d="M9.9341002,8.0986595C9.8525,8.6602592,10.1187,8.8213596,10.1187,8.8213596
				C10.2245998,8.2803593,9.9341002,8.0986595,9.9341002,8.0986595z"/>
			<path class="st1" d="M9.8334999,8.1719599C9.8364,8.0225601,9.8168993,7.9248595,9.8168993,7.9248595
				c-0.7543993,0.4960999-0.6825943,1.4512-0.6825943,1.4512c0.4725952-0.2774,0.6327944-0.6806993,0.6810951-0.9921999
				c-0.0034008-0.1201-0.0136003-0.1942997-0.0136003-0.1953001C9.8109999,8.1817598,9.8227997,8.1777601,9.8334999,8.1719599z"/>
			<path class="st1" d="M9.8334999,8.1719599c-0.0107002,0.0058002-0.0225,0.0098-0.0317001,0.0165997
				c0,0.0010004,0.0101995,0.0752001,0.0136003,0.1953001c0.0024996,0.0928001,0.0009995,0.2129002-0.0136003,0.3477001
				c-0.0323,0.2812004-0.1202002,0.6884003-0.3788996,1.0507002c0.0086994,0.0098,0.0179996,0.0195999,0.0267992,0.0323
				c0.2666054-0.3789005,0.3604002-0.7989006,0.3926058-1.0879002C9.875,8.4092598,9.8417997,8.1777601,9.8417997,8.1680593
				C9.8393993,8.1690598,9.8364,8.1709595,9.8334999,8.1719599z"/>
			<path class="st1" d="M8.674305,10.6279593c0.8124952-0.2586994,0.7753944-0.8133993,0.7753944-0.8133993
				c-0.0087996-0.0127001-0.0180998-0.0225-0.0267992-0.0323C9.1161995,9.4678593,8.674305,10.6279593,8.674305,10.6279593z"/>
			<path class="st2" d="M10.8213053,4.7959599c-0.1094055-0.3760004-0.2676058-0.6650004-0.2676058-0.6650004
				c0.0146999,0.2627001,0.0756998,0.5185003,0.1436052,0.7314c0.0956945,0.1172004,0.1815948,0.3545003,0.1815948,0.3545003
				C10.8207998,4.9512596,10.8158998,4.8418598,10.8213053,4.7959599z"/>
			<path class="st1" d="M10.9893055,5.6973596C10.9848995,5.6953597,10.9775,5.6943598,10.9775,5.6895599
				c0.0577002,0.4247999,0.1332998,0.7547998,0.1665001,0.9501996c0.0401001,0.2011003,0.0629997,0.2998004,0.0629997,0.3037
				c0.0068998-0.0098,0.0015001-0.0235,0.0015001-0.0351996c0-0.0009999-0.0200005-0.0996003-0.0595999-0.2948999
				C11.1156998,6.4248595,11.0468998,6.1065598,10.9893055,5.6973596z"/>
			<path class="st1" d="M10.6366997,4.8067598c0,0,0.1669998,0.7118998,0.3360004,0.8592997
				c0,0,0.1273994-0.0233998-0.1392002-0.9022999c0,0-0.0082998,0.0019002-0.0121946,0.0322003
				c-0.0054054,0.0458999-0.0005054,0.1552997,0.0575943,0.4208999c0,0-0.0859003-0.2372999-0.1815948-0.3545003
				C10.6771994,4.8369598,10.6567001,4.8174596,10.6366997,4.8067598z"/>
			<path class="st1" d="M11.0834999,5.5645599C11.0928001,5.9951596,11.1777,6.6631598,11.1777,6.6631598
				C11.2484999,6.3779597,11.0834999,5.5645599,11.0834999,5.5645599z"/>
			<path class="st1" d="M11.1483994,6.7354598c0,0-0.0941992-0.4883003-0.2572994,0.0174999
				C10.8910999,6.7529597,11.1138,7.2842598,11.1483994,6.7354598z"/>
			<polygon class="st1" points="11.3046999,8.5957594 11.3056993,8.5908594 11.2973995,8.5977592 			"/>
			<path class="st1" d="M11.2743998,8.6182594c-0.1390944,0.1386003-0.1913996,0.3281002-0.2245998,0.4921999
				c-0.0073004,0.0478001-0.0180998,0.0996008-0.0288,0.1464005c-0.0044003,0.0214996-0.0088005,0.0419998-0.0136948,0.0615997
				C10.9584999,9.5322599,10.915,9.6651602,10.915,9.6709595c0-0.0067997,0.0058994-0.0127001,0.0058994-0.0194998
				c0.0015001,0,0.04-0.1318998,0.0884056-0.3379002c0.0458946-0.1777,0.0775948-0.4638996,0.2890005-0.6659994
				c0-0.0020008,0.000494-0.0039005,0.000494-0.0049C11.2904997,8.63486,11.2826996,8.6270599,11.2743998,8.6182594z"/>
			<path class="st1" d="M10.9843998,9.4170599c0.0591002,0.0254002,0.1141996,0.0370998,0.1669998,0.0381002
				c0.0239058-0.1035004,0.0467997-0.2090006,0.0674-0.3154001C11.0386,9.2383595,10.9843998,9.4170599,10.9843998,9.4170599z"/>
			<path class="st1" d="M11.0214996,8.9688597c0,0-0.1201,0.6844997-0.0321941,0.4169998
				c0,0,0.0155945-0.0566998,0.0316944-0.1289997c0.0107002-0.0467997,0.0214996-0.0986004,0.0288-0.1464005
				C11.0640001,9.0156593,11.0644999,8.9404593,11.0214996,8.9688597z"/>
			<path class="st1" d="M11.1190996,8.7822599c0,0,0.0483999-0.2519007,0.0342054-0.2910004
				C11.1533051,8.4912596,11.1020994,8.8330593,11.1190996,8.7822599z"/>
			<path class="st3" d="M11.3324995,8.3379593c0.0137005-0.1454992,0.0239-0.2919998,0.0298052-0.4403996
				C11.3217993,8.0342598,11.3231993,8.2090597,11.3324995,8.3379593z"/>
			<path class="st1" d="M11.2290001,7.9443598c0,0-0.1152,0.5019999,0.0351992,0.6631002
				c0.0005007,0,0.0068007-0.0019007,0.0180006-0.0047998C11.2621994,8.5166597,11.2060995,8.23736,11.2290001,7.9443598z"/>
			<path class="st1" d="M11.2821999,8.6026602c-0.0112,0.0028992-0.0174999,0.0047998-0.0180006,0.0047998h-0.0004997
				c0.0033998,0.0038996,0.0073004,0.0078001,0.0107002,0.0107994c0.0082998,0.0088005,0.0160999,0.0166006,0.0243998,0.0244007
				c0.0025053-0.0156002,0.0039005-0.0313005,0.0059004-0.0469007c-0.0025005,0.0010004-0.0049,0.0010004-0.0073004,0.0019999
				C11.2915001,8.5996599,11.2866001,8.6006594,11.2821999,8.6026602z"/>
			<path class="st1" d="M5.7964001,0.0752597c0.1332998,0.0391,0.5049052,0.0859,0.5049052,0.0859
				C6.1557999,0.0977597,5.7964001,0.0752597,5.7964001,0.0752597z"/>
			<path class="st1" d="M6.2670999,0.1289597c-0.0117002-0.0049-0.0194998-0.0058-0.0230002-0.0049
				c0.0069003,0.002,0.0132055,0.0039,0.0201001,0.0049C6.2651,0.1289597,6.2660999,0.1289597,6.2670999,0.1289597z"/>
			<path class="st1" d="M6.2690001,0.1299597c0.0039997,0.001,0.0083051,0.0029,0.0126996,0.0039
				c0.0577002,0.0156,0.1016054,0.0283,0.1026053,0.0283c-0.0073051-0.001-0.0147052-0.001-0.0225053-0.001
				c0.0606003,0.0186,0.1171999,0.0362,0.1171999,0.0362c0.1943054,0.0019,0.1714001-0.0127,0.1040001-0.0322
				c-0.0219998-0.0069-0.0458999-0.0245-0.0688-0.0459c-0.0523-0.0147-0.1040001-0.0274-0.1557999-0.0391
				c-0.0409999,0.0322-0.0718002,0.0449-0.0913,0.0488C6.2676001,0.1289597,6.2680998,0.1289597,6.2690001,0.1299597z"/>
			<path class="st1" d="M6.1226001,0.0986597c0.1078997,0.0254,0.2294998,0.0606,0.2342997,0.0616
				c0.0020003,0,0.0035,0.0009,0.0049,0.0009c0.0078001,0,0.0152001,0,0.0225053,0.001
				c-0.0009999,0-0.0449052-0.0127-0.1026053-0.0283c-0.0057998-0.001-0.0116997-0.0029-0.0174999-0.0049
				c-0.0068946-0.001-0.0131998-0.0029-0.0201001-0.0049c-0.0282998-0.0078-0.0580997-0.0146-0.0868998-0.0224
				c-0.0581002-0.0147-0.1097999-0.0235-0.1264-0.0791c-0.0127001-0.002-0.0258999-0.003-0.0386-0.0039
				C6.0088,0.0752597,6.0625,0.0850597,6.1226001,0.0986597z"/>
		</g>
	</g>
</g>
</svg>
